<svg version="1.1" id="Layer_1" xmlns="http://www.w3.org/2000/svg" xmlns:xlink="http://www.w3.org/1999/xlink" x="0px" y="0px"
	 width="100%" viewBox="0 0 225 225" enable-background="new 0 0 225 225" xml:space="preserve">
<path fill="#FEFEFE" opacity="1.000000" stroke="none" 
	d="
M134.000000,226.000000 
	C89.333336,226.000000 45.166672,226.000000 1.000006,226.000000 
	C1.000004,151.000000 1.000004,76.000015 1.000002,1.000016 
	C75.999992,1.000011 150.999985,1.000011 225.999969,1.000005 
	C225.999985,75.999985 225.999985,150.999969 226.000000,225.999969 
	C195.500000,226.000000 165.000000,226.000000 134.000000,226.000000 
M195.114792,180.020813 
	C195.114792,180.020813 195.319321,180.018082 195.737274,179.475052 
	C196.157227,177.975861 196.577179,176.476685 197.609512,174.684723 
	C204.946350,167.954010 206.637650,158.945663 207.354279,149.691345 
	C207.576385,146.823166 206.613785,143.863251 206.101685,140.102188 
	C206.072739,138.401016 206.043793,136.699829 206.541199,134.503479 
	C206.298447,120.342003 206.087448,106.179764 205.751343,92.020508 
	C205.725082,90.914505 204.824188,89.829277 204.678116,88.103088 
	C204.770233,87.412750 204.862350,86.722404 205.693115,85.912941 
	C206.400742,81.575668 208.180054,77.101074 207.644699,72.923073 
	C203.733994,42.403439 166.761795,22.673849 138.810165,36.100983 
	C132.216080,39.268578 125.667046,42.541138 119.219772,45.994129 
	C117.851166,46.727119 117.017113,48.458218 115.176483,49.554569 
	C113.217072,49.313492 111.254692,49.094151 109.298706,48.827919 
	C92.490509,46.540131 77.080833,49.424786 63.085384,60.974854 
	C60.933460,60.967388 58.777740,60.873932 56.630329,60.968723 
	C50.424011,61.242680 44.221035,61.592411 37.374249,62.418842 
	C37.270538,64.937370 37.166824,67.455902 36.493767,70.347336 
	C30.345713,77.460175 26.110445,85.382164 25.985901,95.839218 
	C25.925009,96.874908 25.864117,97.910606 25.255995,99.069405 
	C25.435888,99.731323 25.615782,100.393250 25.872940,101.697594 
	C25.920969,102.125992 25.968996,102.554390 25.977301,103.491417 
	C25.971979,103.661385 25.966656,103.831360 25.376673,104.593613 
	C25.600863,110.824455 25.014229,117.222443 26.255383,123.243652 
	C27.791592,130.696289 30.844126,137.836334 33.028564,145.779099 
	C30.150621,150.031708 27.610691,154.570297 24.313223,158.467987 
	C19.699713,163.921265 18.509041,169.960754 18.876635,176.856873 
	C19.086611,180.796082 20.426321,182.082123 24.236557,182.000046 
	C32.699440,181.817703 41.180904,182.213745 49.631226,181.840500 
	C54.580753,181.621857 56.530167,182.994232 56.183910,188.194153 
	C55.927517,192.044525 56.839371,195.972687 56.253807,199.990082 
	C49.658108,199.990082 43.062408,199.990082 36.466709,199.990082 
	C36.476299,200.252609 36.485886,200.515121 36.495476,200.777649 
	C89.053299,200.777649 141.611130,200.777649 194.168945,200.777649 
	C194.170761,200.465302 194.172562,200.152939 194.174377,199.840591 
	C190.553970,199.840591 186.933563,199.840591 183.202423,199.024857 
	C183.491760,195.943649 183.934814,192.867645 184.039368,189.780182 
	C184.278320,182.725647 182.530777,181.584503 191.291672,181.890900 
	C192.317581,181.926773 193.367859,181.266373 194.688538,180.759033 
	C194.851456,180.605804 194.972092,180.424454 195.114792,180.020813 
M81.224586,38.844646 
	C80.617386,40.754589 79.038498,43.130535 79.669662,44.446594 
	C80.332954,45.829666 83.053902,46.662739 84.979927,46.904045 
	C88.096474,47.294506 91.332703,47.305164 94.457558,46.946331 
	C104.023880,45.847816 112.332787,41.951263 118.315651,34.273392 
	C122.530731,28.864120 121.202850,25.854036 114.420929,26.159069 
	C102.360306,26.701525 90.685165,29.065954 81.224586,38.844646 
z"/>
<path fill="#E7EDF3" opacity="1.000000" stroke="none" 
	d="
M204.329788,88.734398 
	C204.824188,89.829277 205.725082,90.914505 205.751343,92.020508 
	C206.087448,106.179764 206.298447,120.342003 205.809341,134.752380 
	C200.553848,135.001282 196.030197,135.001282 190.572220,135.001282 
	C191.150055,138.233826 191.583328,140.657639 192.314819,143.357971 
	C196.734863,143.458405 200.856659,143.282349 205.259872,142.941711 
	C205.758698,142.166534 205.976120,141.555939 206.193558,140.945328 
	C206.613785,143.863251 207.576385,146.823166 207.354279,149.691345 
	C206.637650,158.945663 204.946350,167.954010 197.304077,174.463531 
	C196.531738,172.830811 196.064819,171.419266 195.470169,169.668320 
	C195.236954,168.857529 195.131485,168.386154 194.944366,167.554474 
	C191.375702,166.429733 187.888672,165.665298 184.291748,164.905029 
	C184.181839,164.909195 183.982162,165.001419 184.007202,164.533279 
	C184.035492,147.566025 184.064514,131.066803 183.997864,114.567970 
	C183.991913,113.092186 183.365540,111.618904 182.767975,110.065506 
	C182.338745,109.924980 182.168854,109.863411 181.890915,109.426559 
	C177.842972,109.063141 173.903046,109.075012 169.644470,109.187416 
	C166.578049,112.868858 163.830307,116.449760 160.682755,120.064575 
	C157.431610,120.407524 154.580292,120.716568 151.456894,121.055099 
	C149.100418,127.205696 146.668961,133.936142 143.903778,140.526566 
	C143.112823,142.411774 142.517807,145.628281 139.093567,143.617050 
	C141.515625,138.896133 144.388107,134.688217 145.965820,130.040741 
	C151.089386,114.948174 150.941803,99.474312 148.490723,83.752968 
	C150.822159,80.156502 151.147202,77.449181 145.826050,76.824203 
	C145.412048,76.612083 145.232391,76.556740 145.103302,76.140137 
	C144.643158,74.218437 144.296188,72.580017 143.595871,71.109917 
	C137.986954,59.335789 128.309540,52.778172 115.936775,49.729462 
	C117.017113,48.458218 117.851166,46.727119 119.219772,45.994129 
	C125.667046,42.541138 132.216080,39.268578 138.810165,36.100983 
	C166.761795,22.673849 203.733994,42.403439 207.644699,72.923073 
	C208.180054,77.101074 206.400742,81.575668 205.339386,85.982643 
	C204.985641,86.052345 204.954422,86.072983 204.970337,85.643150 
	C204.945572,84.354324 204.904877,83.495331 205.013077,82.253517 
	C203.555405,79.586739 201.948868,77.302780 200.783325,75.645767 
	C198.358185,75.094742 196.473862,74.410057 194.567932,74.343391 
	C193.635956,74.310799 192.663742,75.428139 191.543488,76.156311 
	C191.182556,76.505211 191.065369,76.758629 191.013351,77.023697 
	C191.001053,76.999519 191.047165,77.028145 190.754303,77.034927 
	C189.977982,77.321770 189.494507,77.601837 188.682800,77.962524 
	C187.911087,79.006714 187.467636,79.970276 187.018478,81.386131 
	C187.063980,82.741829 187.115173,83.645241 186.952606,84.893501 
	C188.056931,86.876480 189.264267,88.624588 190.737961,90.108109 
	C191.520538,90.895912 192.720535,91.360001 193.814423,91.720177 
	C194.767059,92.033844 195.862625,92.196564 196.845428,92.062462 
	C198.019745,91.902222 199.141281,91.355309 200.452362,90.851517 
	C200.816437,90.520561 200.942932,90.277122 200.999252,89.998413 
	C201.000000,90.000000 200.996765,89.998260 201.278931,89.986816 
	C202.034744,89.713165 202.508377,89.450951 203.217667,89.149902 
	C203.732178,88.954590 204.024338,88.829033 204.329788,88.734398 
M138.618652,52.661514 
	C142.732590,52.498291 146.846527,52.335064 151.517563,52.133293 
	C151.699677,52.094776 151.881805,52.056255 152.756653,51.880173 
	C154.552368,48.855606 156.527298,46.171124 160.715790,46.759815 
	C161.048096,46.806522 161.558304,45.587574 161.443771,44.327160 
	C157.297180,44.173187 153.150589,44.019218 149.001694,43.057755 
	C149.122681,40.891148 149.243668,38.724545 149.364655,36.557938 
	C148.908325,36.538498 148.451996,36.519054 147.995667,36.499615 
	C147.995667,38.950413 147.995667,41.401215 147.078918,43.956020 
	C143.876755,43.956020 140.674606,43.956020 136.555817,43.956020 
	C137.152054,47.265064 137.588516,49.687408 138.618652,52.661514 
M169.188324,52.057766 
	C168.257446,52.030636 167.159256,52.316959 166.423492,51.924263 
	C162.389175,49.771053 161.603333,51.431026 161.405487,55.336536 
	C161.324844,56.928471 159.183380,58.416008 157.638824,59.509167 
	C157.084900,59.981979 156.530975,60.454796 155.809189,61.649960 
	C156.052689,62.838730 156.260696,64.036148 156.547684,65.214325 
	C157.026642,67.180603 158.500671,69.531532 157.877182,71.015053 
	C156.353592,74.640236 158.320251,75.047607 160.849823,76.024521 
	C162.753174,76.759598 164.644257,78.066406 165.980560,79.605225 
	C168.066879,82.007713 169.814148,83.018471 172.454971,79.795509 
	C172.707443,79.616226 172.885025,79.380508 173.666687,78.860146 
	C174.616089,78.658348 175.940826,77.950562 176.456711,78.333221 
	C181.479691,82.059013 181.785217,78.946266 182.125168,74.863037 
	C182.235489,73.538002 183.715759,71.510117 184.902161,71.234138 
	C189.825348,70.088905 188.054688,68.012497 186.367569,65.296265 
	C185.474915,63.859112 184.851395,61.642685 185.285370,60.112431 
	C186.426697,56.087963 185.416977,54.621552 180.674393,54.540596 
	C180.306183,54.402176 179.937973,54.263756 179.465042,54.195225 
	C179.465042,54.195225 179.354416,54.135086 178.798325,54.051651 
	C178.611725,54.033890 178.425140,54.016129 177.842117,53.381638 
	C175.751831,48.026684 175.315796,47.873413 170.888702,51.183750 
	C170.600067,51.408131 170.311447,51.632515 169.188324,52.057766 
M168.009949,93.503998 
	C167.929764,94.524590 167.401718,95.861519 167.855957,96.504639 
	C169.069412,98.222641 170.704742,99.642677 172.479416,101.502930 
	C174.230469,101.788887 176.663818,102.186272 178.614487,102.504829 
	C180.834122,100.860687 182.850235,99.367279 185.831940,97.158638 
	C185.014374,93.510185 184.082092,89.349770 183.059677,84.787148 
	C179.202133,85.093102 175.471817,84.332268 173.173813,85.805550 
	C169.190048,88.359589 168.562164,90.556183 168.009949,93.503998 
M161.567978,37.296158 
	C161.295441,37.010632 161.022888,36.725105 160.750351,36.439579 
	C160.632187,36.552582 160.405075,36.757607 160.411575,36.765320 
	C160.665924,37.066456 160.941559,37.349613 161.567978,37.296158 
z"/>
<path fill="#AAB6C2" opacity="1.000000" stroke="none" 
	d="
M115.556625,49.642014 
	C128.309540,52.778172 137.986954,59.335789 143.595871,71.109917 
	C144.296188,72.580017 144.643158,74.218437 144.715988,76.312424 
	C141.068130,76.917923 137.841339,76.808113 134.651978,77.103035 
	C129.439285,77.585068 124.250992,78.330734 118.696320,78.928474 
	C117.597542,77.870316 116.585167,76.950714 116.154846,75.811295 
	C112.736496,66.760132 106.600838,65.561760 100.344482,65.229538 
	C92.904076,64.834435 87.155807,69.351379 84.974525,76.936142 
	C83.568146,81.826385 83.047630,86.971375 82.114807,92.445816 
	C82.083145,95.512451 82.066750,98.135468 82.016876,101.245491 
	C82.251289,107.567551 82.519173,113.402603 82.812729,119.706718 
	C83.863243,124.087723 84.888100,127.999664 85.941956,132.272049 
	C88.406349,137.994904 92.507133,141.273956 98.370956,141.900253 
	C101.664421,142.252029 102.886528,144.112900 103.345596,147.255554 
	C103.584023,148.013107 103.801720,148.502731 103.975342,149.368835 
	C104.025520,150.494064 104.119766,151.242798 104.197266,152.358749 
	C104.469246,154.144684 104.757973,155.563416 104.993546,157.325317 
	C104.906281,158.128540 104.872169,158.588562 104.392570,159.018433 
	C93.254669,159.204269 83.038948,156.988602 73.122574,152.494049 
	C72.999344,138.673691 72.932816,125.315956 72.896149,111.731934 
	C72.926003,111.505646 72.814018,111.063095 72.746796,110.702621 
	C70.738976,110.215317 68.758705,110.292770 66.864914,109.924934 
	C60.081573,108.607391 55.332783,111.101021 52.277676,116.844971 
	C52.073677,114.629349 51.999096,112.844345 51.952049,110.606102 
	C51.926476,107.724709 51.873371,105.296555 51.856022,102.412689 
	C52.618248,93.818932 53.344715,85.680893 54.101433,77.203995 
	C51.143730,77.072647 47.760857,76.922432 44.311619,76.769257 
	C44.069698,74.346741 43.877892,72.426079 43.633060,69.974434 
	C41.278164,69.974434 39.170635,69.974434 37.063110,69.974434 
	C37.166824,67.455902 37.270538,64.937370 37.705151,62.481369 
	C38.370361,63.028740 38.704670,63.513588 39.026707,64.387856 
	C38.945652,66.135277 38.876873,67.493279 38.816486,68.685562 
	C43.014458,68.685562 46.740391,68.685562 50.867485,68.685562 
	C50.867485,66.608444 50.867485,64.840973 50.985825,62.878319 
	C51.445187,62.812439 51.786205,62.941746 52.085480,63.496712 
	C52.121841,65.490005 52.199955,67.057632 52.263874,68.340446 
	C57.513683,70.425980 60.066460,67.828857 62.262955,63.839195 
	C63.016563,62.792503 63.521011,61.917290 64.025459,61.042076 
	C77.080833,49.424786 92.490509,46.540131 109.298706,48.827919 
	C111.254692,49.094151 113.217072,49.313492 115.556625,49.642014 
M56.394955,74.158401 
	C56.838810,72.969505 57.282665,71.780602 57.805569,70.379974 
	C53.382324,70.379974 49.361912,70.379974 45.003128,70.379974 
	C45.102264,72.360756 45.181129,73.936523 45.308254,76.476494 
	C49.167072,75.897652 52.582111,75.385384 56.394955,74.158401 
z"/>
<path fill="#F58333" opacity="1.000000" stroke="none" 
	d="
M72.866287,111.958221 
	C72.932816,125.315956 72.999344,138.673691 73.059555,152.549713 
	C73.053238,153.068008 72.904610,152.993835 72.627708,153.294891 
	C72.591087,157.393661 72.831360,161.191376 73.389313,165.189728 
	C74.422813,165.780807 75.100433,166.387741 75.861458,166.522034 
	C78.396858,166.969482 82.111809,166.362640 83.227440,167.812317 
	C84.648308,169.658646 83.972054,173.116638 84.209190,175.879074 
	C84.237305,176.206665 84.324165,176.529221 84.331543,177.179306 
	C84.315277,177.720840 84.351273,177.937180 84.291054,178.453094 
	C84.112267,179.163620 84.029701,179.574570 83.662064,180.095398 
	C83.147903,180.765274 82.918808,181.325287 82.467728,181.897110 
	C82.245735,181.908920 81.822769,182.045975 81.546097,182.007904 
	C80.898659,182.008118 80.527908,182.046417 79.871170,182.045654 
	C79.395668,182.039917 79.206154,182.073273 78.595642,182.043671 
	C74.264816,181.428253 72.582550,183.087662 72.978447,187.036789 
	C73.176765,189.015030 73.110138,191.019821 73.100601,193.410629 
	C72.663910,195.825836 72.289940,197.843018 71.461105,199.937195 
	C66.414413,199.964844 61.822601,199.915512 57.230789,199.866180 
	C56.839371,195.972687 55.927517,192.044525 56.183910,188.194153 
	C56.530167,182.994232 54.580753,181.621857 49.631226,181.840500 
	C41.180904,182.213745 32.699440,181.817703 24.236557,182.000046 
	C20.426321,182.082123 19.086611,180.796082 18.876635,176.856873 
	C18.509041,169.960754 19.699713,163.921265 24.313223,158.467987 
	C27.610691,154.570297 30.150621,150.031708 33.411186,145.261108 
	C39.998238,135.587280 46.202663,126.431442 52.407089,117.275604 
	C55.332783,111.101021 60.081573,108.607391 66.864914,109.924934 
	C68.758705,110.292770 70.738976,110.215317 72.609344,110.789993 
	C72.366859,111.574409 72.475914,111.814537 72.866287,111.958221 
M47.228001,148.700027 
	C44.752277,152.418427 42.188431,156.081955 39.828041,159.872177 
	C37.855148,163.040192 39.225536,167.426590 42.230522,167.657211 
	C45.194302,167.884659 48.225346,167.976593 51.162151,167.609787 
	C54.209614,167.229141 56.191895,165.485626 56.069191,161.968292 
	C55.936428,158.162613 56.290691,154.326843 55.960228,150.545471 
	C55.709728,147.679138 54.718380,144.877563 54.056705,142.047165 
	C51.916016,144.063751 49.775326,146.080322 47.228001,148.700027 
z"/>
<path fill="#F58233" opacity="1.000000" stroke="none" 
	d="
M181.998947,109.801834 
	C182.168854,109.863411 182.338745,109.924980 182.757141,110.524200 
	C183.003540,127.320061 182.972122,143.578400 183.042496,159.836304 
	C183.049942,161.559341 183.654572,163.279770 183.982162,165.001419 
	C183.982162,165.001419 184.181839,164.909195 184.411163,165.233032 
	C188.102325,166.342850 191.564163,167.128815 195.026001,167.914780 
	C195.131485,168.386154 195.236954,168.857529 195.337723,170.105408 
	C195.328445,173.927307 195.323883,176.972702 195.319336,180.018082 
	C195.319321,180.018082 195.114792,180.020813 194.858505,180.109100 
	C194.602219,180.197403 194.273865,180.501450 194.273865,180.501450 
	C194.273865,180.501450 194.406830,180.928741 194.406830,180.928741 
	C193.367859,181.266373 192.317581,181.926773 191.291672,181.890900 
	C182.530777,181.584503 184.278320,182.725647 184.039368,189.780182 
	C183.934814,192.867645 183.491760,195.943649 182.770950,199.508087 
	C177.562775,199.943802 172.786087,199.896271 167.889282,199.470901 
	C167.506332,196.064072 167.243469,193.035095 167.055771,189.563507 
	C167.201294,181.952393 167.201294,181.951569 159.891357,181.950607 
	C151.448776,181.949493 143.000870,182.103928 134.568405,181.811737 
	C133.002075,181.757462 131.497940,179.908371 130.296661,178.682419 
	C134.091751,177.932068 137.555252,177.386902 141.018768,176.841751 
	C141.118408,176.305969 141.218048,175.770187 141.317673,175.234406 
	C139.870361,174.554749 138.423035,173.875107 136.622864,173.160339 
	C134.501785,173.429291 132.225418,174.524994 133.130096,170.702881 
	C133.279343,166.965790 133.226135,163.505783 133.520157,160.034607 
	C138.931534,152.931534 144.111710,145.918839 149.024307,138.723450 
	C153.203796,132.601791 157.074966,126.269653 161.082550,120.030655 
	C163.830307,116.449760 166.578049,112.868858 169.907059,109.516876 
	C174.325195,109.764465 178.162079,109.783150 181.998947,109.801834 
M167.012573,164.893951 
	C166.776932,156.683716 168.278946,148.341965 166.058334,140.281937 
	C165.507050,140.130356 164.955750,139.978760 164.404449,139.827179 
	C158.914047,147.948456 153.423645,156.069733 147.602600,164.680084 
	C154.036331,170.057312 160.375107,167.592209 167.012573,164.893951 
z"/>
<path fill="#E7EDF3" opacity="1.000000" stroke="none" 
	d="
M52.277672,116.844971 
	C46.202663,126.431442 39.998238,135.587280 33.517693,144.927277 
	C30.844126,137.836334 27.791592,130.696289 26.255383,123.243652 
	C25.014229,117.222443 25.600863,110.824455 26.126471,104.295311 
	C29.906694,104.005959 32.937119,104.014908 35.992348,104.466400 
	C36.106750,106.797752 36.196346,108.686546 36.301872,110.911171 
	C41.524364,110.911171 46.227043,110.911171 51.179192,110.943016 
	C51.593948,111.003021 51.759232,111.031189 51.924515,111.059349 
	C51.999096,112.844345 52.073677,114.629349 52.277672,116.844971 
z"/>
<path fill="#E7EDF3" opacity="1.000000" stroke="none" 
	d="
M36.778439,70.160889 
	C39.170635,69.974434 41.278164,69.974434 43.633060,69.974434 
	C43.877892,72.426079 44.069698,74.346741 44.311619,76.769257 
	C47.760857,76.922432 51.143730,77.072647 54.101433,77.203995 
	C53.344715,85.680893 52.618248,93.818932 51.668301,102.438049 
	C51.444820,102.919128 51.064049,102.945625 50.800297,102.921524 
	C50.360378,102.885529 50.184216,102.873627 49.709919,102.596748 
	C46.639053,102.201637 43.866314,102.071518 41.057610,101.501129 
	C40.931591,99.170410 40.841534,97.279945 40.736019,95.064964 
	C35.478203,95.064964 30.757910,95.064964 26.037617,95.064964 
	C26.110445,85.382164 30.345713,77.460175 36.778439,70.160889 
z"/>
<path fill="#E7EDF3" opacity="1.000000" stroke="none" 
	d="
M81.482086,38.589043 
	C90.685165,29.065954 102.360306,26.701525 114.420929,26.159069 
	C121.202850,25.854036 122.530731,28.864120 118.315651,34.273392 
	C112.332787,41.951263 104.023880,45.847816 94.457558,46.946331 
	C91.332703,47.305164 88.096474,47.294506 84.979927,46.904045 
	C83.053902,46.662739 80.332954,45.829666 79.669662,44.446594 
	C79.038498,43.130535 80.617386,40.754589 81.482086,38.589043 
z"/>
<path fill="#000101" opacity="1.000000" stroke="none" 
	d="
M168.009384,199.848740 
	C172.786087,199.896271 177.562775,199.943802 182.826324,199.915955 
	C186.933563,199.840591 190.553970,199.840591 194.174377,199.840591 
	C194.172562,200.152939 194.170761,200.465302 194.168945,200.777649 
	C141.611130,200.777649 89.053299,200.777649 36.495476,200.777649 
	C36.485886,200.515121 36.476299,200.252609 36.466709,199.990082 
	C43.062408,199.990082 49.658108,199.990082 56.742298,199.928131 
	C61.822601,199.915512 66.414413,199.964844 71.935883,200.000336 
	C83.565353,199.941483 94.265167,199.896484 105.422302,199.931808 
	C109.594551,199.958542 113.309471,199.904953 117.487022,199.920410 
	C134.636230,199.942551 151.322800,199.895645 168.009384,199.848740 
z"/>
<path fill="#090A0A" opacity="1.000000" stroke="none" 
	d="
M204.503952,88.418747 
	C204.024338,88.829033 203.732178,88.954590 202.925079,89.033173 
	C201.930161,89.302933 201.463455,89.650597 200.996765,89.998260 
	C200.996765,89.998260 201.000000,90.000000 200.746826,90.053116 
	C200.424332,90.396118 200.355011,90.686005 200.285690,90.975883 
	C199.141281,91.355309 198.019745,91.902222 196.845428,92.062462 
	C195.862625,92.196564 194.767059,92.033844 193.814423,91.720177 
	C192.720535,91.360001 191.520538,90.895912 190.737961,90.108109 
	C189.264267,88.624588 188.056931,86.876480 187.252792,84.666473 
	C187.519211,83.041008 187.271698,81.987419 187.024185,80.933838 
	C187.467636,79.970276 187.911087,79.006714 188.981628,78.095352 
	C190.088196,77.774414 190.567688,77.401283 191.047165,77.028145 
	C191.047165,77.028145 191.001053,76.999519 191.267212,76.953918 
	C191.592148,76.613869 191.650940,76.319435 191.709747,76.025002 
	C192.663742,75.428139 193.635956,74.310799 194.567932,74.343391 
	C196.473862,74.410057 198.358185,75.094742 200.783325,75.645767 
	C201.948868,77.302780 203.555405,79.586739 204.699493,82.443924 
	C204.476151,84.035767 204.715286,85.054375 204.954437,86.072983 
	C204.954422,86.072983 204.985641,86.052345 204.970062,86.042206 
	C204.862350,86.722404 204.770233,87.412750 204.503952,88.418747 
M194.836746,78.040848 
	C191.515457,79.049713 189.867447,81.349945 190.566513,84.706619 
	C191.218613,87.837730 193.665298,89.925545 196.704559,88.816109 
	C198.731552,88.076187 201.253265,85.601044 201.468445,83.670120 
	C201.846588,80.276848 199.524063,77.888916 194.836746,78.040848 
z"/>
<path fill="#D1D8DF" opacity="1.000000" stroke="none" 
	d="
M63.555420,61.008465 
	C63.521011,61.917290 63.016563,62.792503 61.981125,63.543694 
	C58.342499,63.303463 55.234859,63.187260 52.127224,63.071053 
	C51.786205,62.941746 51.445187,62.812439 50.559986,62.855576 
	C46.356861,63.351490 42.697922,63.674961 39.038979,63.998432 
	C38.704670,63.513588 38.370361,63.028740 38.026398,62.228142 
	C44.221035,61.592411 50.424011,61.242680 56.630329,60.968723 
	C58.777740,60.873932 60.933460,60.967388 63.555420,61.008465 
z"/>
<path fill="#C9D2DA" opacity="1.000000" stroke="none" 
	d="
M41.093578,101.941391 
	C43.866314,102.071518 46.639053,102.201637 49.708004,102.884201 
	C50.000015,103.627190 49.995808,103.817757 49.529472,104.002350 
	C45.064491,104.014725 41.061642,104.033073 36.961906,103.872154 
	C36.565868,103.803207 36.266705,103.913528 35.967545,104.023849 
	C32.937119,104.014908 29.906694,104.005959 26.418800,103.999176 
	C25.966656,103.831360 25.971979,103.661385 26.234680,103.126450 
	C26.694813,102.481606 26.897566,102.201729 27.553141,101.949799 
	C31.978128,101.964149 35.950294,101.950539 40.027420,102.124893 
	C40.452782,102.189041 40.773182,102.065216 41.093578,101.941391 
z"/>
<path fill="#AAB5C1" opacity="1.000000" stroke="none" 
	d="
M41.057610,101.501129 
	C40.773182,102.065216 40.452782,102.189041 40.060017,101.692596 
	C39.892536,99.501167 39.797421,97.930008 39.699051,96.305054 
	C35.302513,96.305054 31.425098,96.305054 27.100317,96.305054 
	C27.100317,98.381203 27.100317,100.151527 27.100319,101.921844 
	C26.897566,102.201729 26.694813,102.481606 26.254541,102.872139 
	C25.968996,102.554390 25.920969,102.125992 25.900372,101.026917 
	C25.886276,99.886253 25.844749,99.416275 25.803223,98.946297 
	C25.864117,97.910606 25.925009,96.874908 26.011759,95.452087 
	C30.757910,95.064964 35.478203,95.064964 40.736019,95.064964 
	C40.841534,97.279945 40.931591,99.170410 41.057610,101.501129 
z"/>
<path fill="#ACB8C4" opacity="1.000000" stroke="none" 
	d="
M192.016602,143.081451 
	C191.583328,140.657639 191.150055,138.233826 190.572220,135.001282 
	C196.030197,135.001282 200.553848,135.001282 205.546173,134.999969 
	C206.043793,136.699829 206.072739,138.401016 206.147614,140.523758 
	C205.976120,141.555939 205.758698,142.166534 205.252609,142.650803 
	C204.955261,142.331253 204.946564,142.138031 204.966583,141.511383 
	C204.893890,139.505692 204.792480,137.933380 204.688110,136.315338 
	C200.297562,136.315338 196.418884,136.315338 192.075882,136.315338 
	C192.075882,138.393036 192.075882,140.163712 192.055618,142.220856 
	C192.029099,142.698715 192.022842,142.890091 192.016602,143.081451 
z"/>
<path fill="#E7ECF1" opacity="1.000000" stroke="none" 
	d="
M195.528305,179.746567 
	C195.323883,176.972702 195.328445,173.927307 195.465454,170.444824 
	C196.064819,171.419266 196.531738,172.830811 196.997894,174.609924 
	C196.577179,176.476685 196.157227,177.975861 195.528305,179.746567 
z"/>
<path fill="#E7EDF3" opacity="1.000000" stroke="none" 
	d="
M25.529608,99.007851 
	C25.844749,99.416275 25.886276,99.886253 25.861740,100.705704 
	C25.615782,100.393250 25.435888,99.731323 25.529608,99.007851 
z"/>
<path fill="#E7ECF1" opacity="1.000000" stroke="none" 
	d="
M194.547684,180.843887 
	C194.406830,180.928741 194.273865,180.501450 194.273865,180.501450 
	C194.273865,180.501450 194.602219,180.197403 194.826324,180.206192 
	C194.972092,180.424454 194.851456,180.605804 194.547684,180.843887 
z"/>
<path fill="#AAB5C1" opacity="1.000000" stroke="none" 
	d="
M148.194290,83.934616 
	C150.941803,99.474312 151.089386,114.948174 145.965820,130.040741 
	C144.388107,134.688217 141.515625,138.896133 138.807892,143.774200 
	C136.392670,145.852036 134.405548,147.461014 132.274704,148.661270 
	C132.030670,137.253555 125.990540,130.164581 117.211327,124.870636 
	C118.031029,120.101463 118.525093,115.554703 119.106628,110.663460 
	C119.499153,109.955666 119.810020,109.270340 120.108452,109.275719 
	C129.783630,109.450027 134.091095,103.249428 136.709259,95.204514 
	C137.870758,91.635628 140.047195,88.218658 139.399261,84.126846 
	C142.250916,84.058014 144.653885,84.033813 147.339905,83.970993 
	C147.813416,83.933128 148.003860,83.933876 148.194290,83.934616 
z"/>
<path fill="#F58435" opacity="1.000000" stroke="none" 
	d="
M171.449371,51.134499 
	C175.315796,47.873413 175.751831,48.026684 178.038177,53.926334 
	C178.607635,54.359051 178.981033,54.247070 179.354416,54.135086 
	C179.354416,54.135086 179.465042,54.195225 179.686127,54.413578 
	C180.274506,54.767647 180.641785,54.903358 181.009064,55.039074 
	C185.416977,54.621552 186.426697,56.087963 185.285370,60.112431 
	C184.851395,61.642685 185.474915,63.859112 186.367569,65.296265 
	C188.054688,68.012497 189.825348,70.088905 184.902161,71.234138 
	C183.715759,71.510117 182.235489,73.538002 182.125168,74.863037 
	C181.785217,78.946266 181.479691,82.059013 176.456711,78.333221 
	C175.940826,77.950562 174.616089,78.658348 173.067093,78.982117 
	C172.329010,79.400139 172.190506,79.696175 172.052002,79.992210 
	C169.814148,83.018471 168.066879,82.007713 165.980560,79.605225 
	C164.644257,78.066406 162.753174,76.759598 160.849823,76.024521 
	C158.320251,75.047607 156.353592,74.640236 157.877182,71.015053 
	C158.500671,69.531532 157.026642,67.180603 156.547684,65.214325 
	C156.260696,64.036148 156.052689,62.838730 156.195740,61.242500 
	C157.048035,60.540375 157.513779,60.245712 157.979538,59.951046 
	C159.183380,58.416008 161.324844,56.928471 161.405487,55.336536 
	C161.603333,51.431026 162.389175,49.771053 166.423492,51.924263 
	C167.159256,52.316959 168.257446,52.030636 169.896652,51.967674 
	C170.886444,51.629883 171.167908,51.382191 171.449371,51.134499 
M167.727020,56.871429 
	C161.916138,60.699825 160.531616,65.673447 163.883728,70.677696 
	C167.015579,75.353119 172.490768,76.376045 177.116623,73.149971 
	C180.795609,70.584236 182.177719,65.803719 180.437851,61.662212 
	C178.536499,57.136269 174.741196,55.498962 167.727020,56.871429 
z"/>
<path fill="#E7ECF1" opacity="1.000000" stroke="none" 
	d="
M132.418427,149.069992 
	C134.405548,147.461014 136.392670,145.852036 138.665466,144.085907 
	C142.517807,145.628281 143.112823,142.411774 143.903778,140.526566 
	C146.668961,133.936142 149.100418,127.205696 151.456894,121.055099 
	C154.580292,120.716568 157.431610,120.407524 160.682739,120.064560 
	C157.074966,126.269653 153.203796,132.601791 149.024307,138.723450 
	C144.111710,145.918839 138.931534,152.931534 133.447449,159.597702 
	C132.824493,155.804626 132.621460,152.437317 132.418427,149.069992 
z"/>
<path fill="#070809" opacity="1.000000" stroke="none" 
	d="
M147.056854,84.009613 
	C144.653885,84.033813 142.250916,84.058014 139.045746,84.051926 
	C137.535645,84.129875 136.827774,84.238121 135.690002,84.187302 
	C130.521545,83.668037 125.782967,83.307823 121.023743,82.623032 
	C120.940628,81.871841 120.878159,81.445236 120.852768,80.724136 
	C120.277367,79.941483 119.664886,79.453331 119.052406,78.965179 
	C124.250992,78.330734 129.439285,77.585068 134.651978,77.103035 
	C137.841339,76.808113 141.068130,76.917923 144.665436,76.673683 
	C145.232391,76.556740 145.412048,76.612083 145.861954,77.134491 
	C146.454575,78.074432 146.776917,78.547302 146.779144,79.117477 
	C146.650558,80.139717 146.842072,81.064644 147.091766,82.323441 
	C147.118896,83.108078 147.087875,83.558853 147.056854,84.009613 
z"/>
<path fill="#ACB8C4" opacity="1.000000" stroke="none" 
	d="
M168.249680,93.214813 
	C168.562164,90.556183 169.190048,88.359589 173.173813,85.805550 
	C175.471817,84.332268 179.202133,85.093102 183.059677,84.787148 
	C184.082092,89.349770 185.014374,93.510185 185.831940,97.158638 
	C182.850235,99.367279 180.834122,100.860687 178.614487,102.504829 
	C176.663818,102.186272 174.230469,101.788887 172.479416,101.502930 
	C170.704742,99.642677 169.069412,98.222641 167.855957,96.504639 
	C167.401718,95.861519 167.929764,94.524590 168.249680,93.214813 
M182.046463,92.598869 
	C180.787689,91.083252 179.804291,88.764870 178.212891,88.218987 
	C174.891174,87.079590 172.307587,88.958443 171.456528,92.277206 
	C170.535339,95.869583 172.771912,98.149818 175.955658,98.746239 
	C179.754776,99.457932 181.804016,97.232613 182.046463,92.598869 
z"/>
<path fill="#F5770E" opacity="1.000000" stroke="none" 
	d="
M184.007202,164.533279 
	C183.654572,163.279770 183.049942,161.559341 183.042496,159.836304 
	C182.972122,143.578400 183.003540,127.320061 183.016464,110.603149 
	C183.365540,111.618904 183.991913,113.092186 183.997864,114.567970 
	C184.064514,131.066803 184.035492,147.566025 184.007202,164.533279 
z"/>
<path fill="#AAB6C2" opacity="1.000000" stroke="none" 
	d="
M149.003998,43.865246 
	C153.150589,44.019218 157.297180,44.173187 161.259369,44.662437 
	C158.196991,44.997719 155.318985,44.997719 152.063919,44.997719 
	C152.063919,47.823830 152.063919,49.920784 152.063919,52.017738 
	C151.881805,52.056255 151.699677,52.094776 151.241302,51.846748 
	C150.958008,51.357456 150.950989,51.154709 150.973587,50.517822 
	C150.901108,48.510616 150.799026,46.937557 150.694000,45.319397 
	C146.298828,45.319397 142.417999,45.319397 138.068619,45.319397 
	C138.068619,47.399269 138.068619,49.170937 138.050110,51.234108 
	C138.029388,51.720322 138.027191,51.915039 138.024979,52.109753 
	C137.588516,49.687408 137.152054,47.265064 136.555817,43.956020 
	C140.674606,43.956020 143.876755,43.956020 147.789124,43.932327 
	C148.667557,43.894173 148.835770,43.879711 149.003998,43.865246 
z"/>
<path fill="#E7ECF1" opacity="1.000000" stroke="none" 
	d="
M152.410278,51.948956 
	C152.063919,49.920784 152.063919,47.823830 152.063919,44.997719 
	C155.318985,44.997719 158.196991,44.997719 161.530411,44.977264 
	C161.558304,45.587574 161.048096,46.806522 160.715790,46.759815 
	C156.527298,46.171124 154.552368,48.855606 152.410278,51.948956 
z"/>
<path fill="#E7ECF1" opacity="1.000000" stroke="none" 
	d="
M194.944366,167.554474 
	C191.564163,167.128815 188.102325,166.342850 184.521057,165.228882 
	C187.888672,165.665298 191.375702,166.429733 194.944366,167.554474 
z"/>
<path fill="#C9D2DA" opacity="1.000000" stroke="none" 
	d="
M192.314819,143.357971 
	C192.022842,142.890091 192.029099,142.698715 192.510284,142.244049 
	C196.969437,141.968750 200.953659,141.956772 204.937866,141.944794 
	C204.946564,142.138031 204.955261,142.331253 204.971207,142.815369 
	C200.856659,143.282349 196.734863,143.458405 192.314819,143.357971 
z"/>
<path fill="#C9D2DA" opacity="1.000000" stroke="none" 
	d="
M138.321808,52.385635 
	C138.027191,51.915039 138.029388,51.720322 138.505646,51.254425 
	C142.967804,50.972820 146.955887,50.962395 150.943970,50.951965 
	C150.950989,51.154709 150.958008,51.357456 150.962738,51.866020 
	C146.846527,52.335064 142.732590,52.498291 138.321808,52.385635 
z"/>
<path fill="#E7ECF1" opacity="1.000000" stroke="none" 
	d="
M181.890915,109.426559 
	C178.162079,109.783150 174.325195,109.764465 170.225739,109.416336 
	C173.903046,109.075012 177.842972,109.063141 181.890915,109.426559 
z"/>
<path fill="#E7ECF1" opacity="1.000000" stroke="none" 
	d="
M147.339905,83.971001 
	C147.087875,83.558853 147.118896,83.108078 147.325912,82.144669 
	C147.367691,80.761414 147.233475,79.890793 147.099274,79.020172 
	C146.776917,78.547302 146.454575,78.074432 146.096313,77.291275 
	C151.147202,77.449181 150.822159,80.156502 148.490723,83.752968 
	C148.003860,83.933876 147.813416,83.933128 147.339905,83.971001 
z"/>
<path fill="#E7ECF1" opacity="1.000000" stroke="none" 
	d="
M149.002838,43.461502 
	C148.835770,43.879711 148.667557,43.894173 148.247498,43.880322 
	C147.995667,41.401215 147.995667,38.950413 147.995667,36.499615 
	C148.451996,36.519054 148.908325,36.538498 149.364655,36.557938 
	C149.243668,38.724545 149.122681,40.891148 149.002838,43.461502 
z"/>
<path fill="#E7ECF1" opacity="1.000000" stroke="none" 
	d="
M161.391190,37.465637 
	C160.941559,37.349613 160.665924,37.066456 160.411575,36.765320 
	C160.405075,36.757607 160.632187,36.552582 160.750351,36.439583 
	C161.022888,36.725105 161.295441,37.010632 161.391190,37.465637 
z"/>
<path fill="#E7ECF1" opacity="1.000000" stroke="none" 
	d="
M157.809174,59.730106 
	C157.513779,60.245712 157.048035,60.540375 156.279663,60.881325 
	C156.530975,60.454796 157.084900,59.981979 157.809174,59.730106 
z"/>
<path fill="#E7ECF1" opacity="1.000000" stroke="none" 
	d="
M187.018478,81.386131 
	C187.271698,81.987419 187.519211,83.041008 187.466553,84.321617 
	C187.115173,83.645241 187.063980,82.741829 187.018478,81.386131 
z"/>
<path fill="#E7ECF1" opacity="1.000000" stroke="none" 
	d="
M204.970337,85.643150 
	C204.715286,85.054375 204.476151,84.035767 204.550598,82.826752 
	C204.904877,83.495331 204.945572,84.354324 204.970337,85.643150 
z"/>
<path fill="#E7ECF1" opacity="1.000000" stroke="none" 
	d="
M190.754303,77.034927 
	C190.567688,77.401283 190.088196,77.774414 189.309875,78.014725 
	C189.494507,77.601837 189.977982,77.321770 190.754303,77.034927 
z"/>
<path fill="#E7ECF1" opacity="1.000000" stroke="none" 
	d="
M201.278931,89.986816 
	C201.463455,89.650597 201.930161,89.302933 202.689453,89.072006 
	C202.508377,89.450951 202.034744,89.713165 201.278931,89.986816 
z"/>
<path fill="#E7ECF1" opacity="1.000000" stroke="none" 
	d="
M191.543472,76.156311 
	C191.650940,76.319435 191.592148,76.613869 191.279510,76.978096 
	C191.065369,76.758629 191.182556,76.505211 191.543472,76.156311 
z"/>
<path fill="#E7ECF1" opacity="1.000000" stroke="none" 
	d="
M171.169037,51.159126 
	C171.167908,51.382191 170.886444,51.629883 170.313904,51.867241 
	C170.311447,51.632515 170.600067,51.408131 171.169037,51.159126 
z"/>
<path fill="#E7ECF1" opacity="1.000000" stroke="none" 
	d="
M179.076370,54.093369 
	C178.981033,54.247070 178.607635,54.359051 178.236404,54.234699 
	C178.425140,54.016129 178.611725,54.033890 179.076370,54.093369 
z"/>
<path fill="#E7ECF1" opacity="1.000000" stroke="none" 
	d="
M172.253479,79.893860 
	C172.190506,79.696175 172.329010,79.400139 172.727600,79.096222 
	C172.885025,79.380508 172.707443,79.616226 172.253479,79.893860 
z"/>
<path fill="#E7ECF1" opacity="1.000000" stroke="none" 
	d="
M200.452362,90.851517 
	C200.355011,90.686005 200.424332,90.396118 200.746078,90.051529 
	C200.942932,90.277122 200.816437,90.520561 200.452362,90.851517 
z"/>
<path fill="#E7ECF1" opacity="1.000000" stroke="none" 
	d="
M180.841736,54.789833 
	C180.641785,54.903358 180.274506,54.767647 179.738495,54.378632 
	C179.937973,54.263756 180.306183,54.402176 180.841736,54.789833 
z"/>
<path fill="#070809" opacity="1.000000" stroke="none" 
	d="
M132.274719,148.661270 
	C132.621460,152.437317 132.824493,155.804626 133.100220,159.608856 
	C133.226135,163.505783 133.279343,166.965790 132.722565,170.708878 
	C129.818008,169.992188 127.523407,168.992416 125.111404,167.671524 
	C125.005623,166.897385 125.017235,166.444366 125.272110,165.798492 
	C125.076981,164.734818 124.638596,163.864014 124.095634,162.632095 
	C123.971703,161.521713 123.952339,160.772415 124.163788,159.873779 
	C124.014374,159.146622 123.634148,158.568817 123.138031,157.679947 
	C122.954720,156.932373 122.887283,156.495880 122.851883,155.676498 
	C122.564911,153.537781 122.245903,151.781952 122.159668,149.872269 
	C121.989502,149.143372 121.586548,148.568329 121.077286,147.671875 
	C119.679527,146.246063 118.388084,145.141663 116.786179,144.053284 
	C116.383675,144.736404 116.291641,145.403503 116.245514,146.502747 
	C116.131676,148.954254 115.971939,150.973618 115.520798,153.044891 
	C115.243446,153.763580 115.257500,154.430359 115.283234,155.433685 
	C115.307724,156.216690 115.320534,156.663147 115.225510,157.416473 
	C115.029869,158.147324 114.942047,158.571304 114.541367,159.053589 
	C114.158691,160.076736 114.088875,161.041595 114.058533,162.340820 
	C114.019112,163.115311 113.940208,163.555435 113.550751,164.051483 
	C113.146133,165.067551 113.052086,166.027740 112.997009,167.329391 
	C112.928551,168.110657 112.821114,168.550446 112.378189,169.074661 
	C109.740616,170.608231 111.346306,175.480560 106.662689,175.060883 
	C106.436073,175.079712 105.999588,174.951996 105.900970,174.751282 
	C105.624565,174.299515 105.392540,174.117676 105.021530,173.670547 
	C105.025162,172.892517 105.113548,172.448975 105.575943,171.897369 
	C107.165657,168.084473 108.526756,164.369110 105.086456,160.675003 
	C104.948547,159.919479 104.893303,159.484039 104.838058,159.048584 
	C104.872169,158.588562 104.906281,158.128540 105.251595,157.089142 
	C105.113197,155.003693 104.663605,153.497604 104.214012,151.991531 
	C104.119766,151.242798 104.025520,150.494064 104.192230,149.216187 
	C104.077087,148.120560 103.700981,147.554092 103.324883,146.987610 
	C102.886528,144.112900 101.664421,142.252029 98.370956,141.900253 
	C92.507133,141.273956 88.406349,137.994904 86.332535,132.184479 
	C94.859032,128.755951 103.023949,125.775444 111.518539,122.891121 
	C113.527374,123.689217 115.206535,124.391129 116.885696,125.093033 
	C125.990540,130.164581 132.030670,137.253555 132.274719,148.661270 
z"/>
<path fill="#E3E9EE" opacity="1.000000" stroke="none" 
	d="
M118.696320,78.928474 
	C119.664886,79.453331 120.277367,79.941483 120.506699,80.736649 
	C119.192528,81.591774 117.813606,81.915497 117.407318,82.726479 
	C115.559616,86.414619 113.985733,90.239922 112.190079,93.656532 
	C102.362450,86.518616 92.429848,85.016670 82.130096,92.002197 
	C83.047630,86.971375 83.568146,81.826385 84.974525,76.936142 
	C87.155807,69.351379 92.904076,64.834435 100.344482,65.229538 
	C106.600838,65.561760 112.736496,66.760132 116.154846,75.811295 
	C116.585167,76.950714 117.597542,77.870316 118.696320,78.928474 
M101.327087,75.250259 
	C101.153839,74.546036 100.980583,73.841805 100.807335,73.137581 
	C97.912178,73.920135 94.683197,74.204720 92.323792,75.786438 
	C91.609070,76.265572 93.300339,80.333656 94.168663,83.420189 
	C95.123940,86.647018 97.683128,85.693672 99.314911,84.780975 
	C100.422340,84.161560 100.953827,82.081665 101.245117,80.559662 
	C101.515572,79.146515 101.126038,77.607048 101.327087,75.250259 
M110.131577,78.401001 
	C108.222038,78.630783 106.312500,78.860565 104.402962,79.090355 
	C104.312584,79.616913 104.222206,80.143471 104.131828,80.670029 
	C107.511032,83.132111 111.844673,81.519722 115.825294,82.365364 
	C116.746429,77.357254 113.785088,77.887733 110.131577,78.401001 
M115.487076,85.573799 
	C115.487076,85.573799 115.415565,85.460632 115.487076,85.573799 
z"/>
<path fill="#E6EBF1" opacity="1.000000" stroke="none" 
	d="
M105.201942,172.005417 
	C105.113548,172.448975 105.025162,172.892517 104.988083,173.967529 
	C105.359459,174.716660 105.679527,174.834335 105.999588,174.951996 
	C105.999588,174.951996 106.436073,175.079712 106.768326,175.441681 
	C106.054695,176.198639 105.008827,176.593643 103.496979,176.982513 
	C96.815262,176.935623 90.599533,176.894867 84.383797,176.854111 
	C84.324165,176.529221 84.237305,176.206665 84.209190,175.879074 
	C83.972054,173.116638 84.648308,169.658646 83.227440,167.812317 
	C82.111809,166.362640 78.396858,166.969482 75.861458,166.522034 
	C75.100433,166.387741 74.422813,165.780807 73.376266,164.729736 
	C72.998573,160.377335 72.951591,156.685577 72.904617,152.993835 
	C72.904610,152.993835 73.053238,153.068008 73.116257,153.012344 
	C83.038948,156.988602 93.254669,159.204269 104.392570,159.018433 
	C104.893303,159.484039 104.948547,159.919479 105.030716,161.131226 
	C105.105743,165.273499 105.153847,168.639450 105.201942,172.005417 
z"/>
<path fill="#F28132" opacity="1.000000" stroke="none" 
	d="
M111.188873,122.794930 
	C103.023949,125.775444 94.859032,128.755951 86.303528,131.824036 
	C84.888100,127.999664 83.863243,124.087723 82.770088,119.399750 
	C85.751671,115.767738 88.801559,112.911758 92.225250,110.006630 
	C92.847649,109.920532 93.096260,109.883591 93.528412,109.855743 
	C93.711952,109.864830 94.012856,110.075874 94.139389,110.286537 
	C94.494324,110.751526 94.777061,110.907181 95.490868,110.925819 
	C100.226967,111.654846 104.586334,112.422226 108.989136,113.564751 
	C109.751343,116.891571 110.470108,119.843254 111.188873,122.794930 
z"/>
<path fill="#F28133" opacity="1.000000" stroke="none" 
	d="
M93.344864,109.846649 
	C93.096260,109.883591 92.847649,109.920532 91.879700,109.978088 
	C88.123703,106.918625 85.087029,103.838554 82.050362,100.758484 
	C82.066750,98.135468 82.083145,95.512451 82.114815,92.445816 
	C92.429848,85.016670 102.362450,86.518616 111.979202,93.957024 
	C110.133926,97.416275 108.376244,100.215683 106.529182,103.157448 
	C104.374496,102.358887 102.149948,101.534431 100.000793,100.737915 
	C97.686623,103.904892 95.515747,106.875778 93.344864,109.846649 
z"/>
<path fill="#090A0A" opacity="1.000000" stroke="none" 
	d="
M82.016876,101.245491 
	C85.087029,103.838554 88.123703,106.918625 91.505913,110.027237 
	C88.801559,112.911758 85.751671,115.767738 82.744415,118.930695 
	C82.519173,113.402603 82.251289,107.567551 82.016876,101.245491 
z"/>
<path fill="#E7EDF3" opacity="1.000000" stroke="none" 
	d="
M56.196053,74.515762 
	C52.582111,75.385384 49.167072,75.897652 45.308254,76.476494 
	C45.181129,73.936523 45.102264,72.360756 45.003128,70.379974 
	C49.361912,70.379974 53.382324,70.379974 57.805569,70.379974 
	C57.282665,71.780602 56.838810,72.969505 56.196053,74.515762 
z"/>
<path fill="#E7EDF3" opacity="1.000000" stroke="none" 
	d="
M39.026707,64.387856 
	C42.697922,63.674961 46.356861,63.351490 50.441643,63.050758 
	C50.867485,64.840973 50.867485,66.608444 50.867485,68.685562 
	C46.740391,68.685562 43.014458,68.685562 38.816486,68.685562 
	C38.876873,67.493279 38.945652,66.135277 39.026707,64.387856 
z"/>
<path fill="#E7EDF3" opacity="1.000000" stroke="none" 
	d="
M52.085480,63.496712 
	C55.234859,63.187260 58.342499,63.303463 61.731968,63.715172 
	C60.066460,67.828857 57.513683,70.425980 52.263874,68.340446 
	C52.199955,67.057632 52.121841,65.490005 52.085480,63.496712 
z"/>
<path fill="#0F0E0D" opacity="1.000000" stroke="none" 
	d="
M104.197266,152.358749 
	C104.663605,153.497604 105.113197,155.003693 105.304749,156.745941 
	C104.757973,155.563416 104.469246,154.144684 104.197266,152.358749 
z"/>
<path fill="#C9D2DA" opacity="1.000000" stroke="none" 
	d="
M51.064049,102.945625 
	C51.064049,102.945625 51.444820,102.919128 51.632542,102.893768 
	C51.873371,105.296555 51.926476,107.724709 51.952049,110.606102 
	C51.759232,111.031189 51.593948,111.003021 51.197502,110.506905 
	C50.998913,107.674507 51.031483,105.310066 51.064049,102.945625 
z"/>
<path fill="#0F0E0D" opacity="1.000000" stroke="none" 
	d="
M103.345596,147.255554 
	C103.700981,147.554092 104.077087,148.120560 104.236298,148.839691 
	C103.801720,148.502731 103.584023,148.013107 103.345596,147.255554 
z"/>
<path fill="#F87C1A" opacity="1.000000" stroke="none" 
	d="
M72.896149,111.731934 
	C72.475914,111.814537 72.366859,111.574409 72.676559,111.150475 
	C72.814018,111.063095 72.926003,111.505646 72.896149,111.731934 
z"/>
<path fill="#E6ECF2" opacity="1.000000" stroke="none" 
	d="
M112.713684,168.990250 
	C112.821114,168.550446 112.928551,168.110657 113.165085,167.054840 
	C113.483223,165.624405 113.672272,164.809998 113.861313,163.995575 
	C113.940208,163.555435 114.019112,163.115311 114.245316,162.077423 
	C114.546494,160.651535 114.700363,159.823425 114.854233,158.995300 
	C114.942047,158.571304 115.029869,158.147324 115.605400,157.408691 
	C118.335358,156.749161 120.577606,156.404266 122.819855,156.059387 
	C122.887283,156.495880 122.954720,156.932373 123.117683,157.958572 
	C123.453140,159.039902 123.693062,159.531509 123.932983,160.023132 
	C123.952339,160.772415 123.971703,161.521713 124.064789,162.948334 
	C124.435303,164.414230 124.732079,165.202789 125.028854,165.991348 
	C125.017235,166.444366 125.005623,166.897385 125.120598,168.044037 
	C125.879814,171.159927 126.512436,173.582169 127.084297,176.357208 
	C128.004059,177.435852 128.984589,178.161743 129.965103,178.887619 
	C131.497940,179.908371 133.002075,181.757462 134.568405,181.811737 
	C143.000870,182.103928 151.448776,181.949493 159.891357,181.950607 
	C167.201294,181.951569 167.201294,181.952393 166.680191,189.604492 
	C154.365555,192.834198 142.530914,195.717606 130.622635,198.255447 
	C126.178368,199.202591 121.562187,199.343063 117.024399,199.851349 
	C113.309471,199.904953 109.594551,199.958542 105.115898,199.665314 
	C93.587418,199.039017 83.170647,197.038406 73.163338,193.012604 
	C73.110138,191.019821 73.176765,189.015030 72.978447,187.036789 
	C72.582550,183.087662 74.264816,181.428253 78.722725,182.253967 
	C79.499161,182.779404 79.778847,182.944885 80.285004,183.352478 
	C82.632980,184.130173 84.805794,184.579025 86.991837,185.471100 
	C87.680244,188.060226 85.253685,191.753693 89.752464,191.982910 
	C93.975792,192.198105 98.218689,192.029007 103.057198,192.029007 
	C103.057198,189.287476 103.057198,187.181808 103.468292,185.038696 
	C106.562378,184.834641 109.670113,185.776199 111.506119,182.245209 
	C113.519005,182.319717 115.090225,182.396378 116.864746,182.482971 
	C117.105835,176.872726 112.518494,178.501480 110.158821,177.554031 
	C111.069641,174.501007 111.891670,171.745636 112.713684,168.990250 
z"/>
<path fill="#E8E8EA" opacity="1.000000" stroke="none" 
	d="
M47.431320,148.398468 
	C49.775326,146.080322 51.916016,144.063751 54.056705,142.047165 
	C54.718380,144.877563 55.709728,147.679138 55.960228,150.545471 
	C56.290691,154.326843 55.936428,158.162613 56.069191,161.968292 
	C56.191895,165.485626 54.209614,167.229141 51.162151,167.609787 
	C48.225346,167.976593 45.194302,167.884659 42.230522,167.657211 
	C39.225536,167.426590 37.855148,163.040192 39.828041,159.872177 
	C42.188431,156.081955 44.752277,152.418427 47.431320,148.398468 
z"/>
<path fill="#E7EDF3" opacity="1.000000" stroke="none" 
	d="
M81.822769,182.045990 
	C81.822769,182.045975 82.245735,181.908920 82.950104,181.931000 
	C87.218163,181.953064 90.781845,181.953064 94.345535,181.953064 
	C94.350327,181.297226 94.355125,180.641373 94.359917,179.985535 
	C90.888992,179.985535 87.418060,179.985535 83.947144,179.985535 
	C84.029701,179.574570 84.112267,179.163620 84.711601,178.411804 
	C91.337715,178.075974 97.447067,178.081009 103.472107,178.455963 
	C102.751762,182.878510 106.187920,181.369659 107.890388,182.564194 
	C107.493553,183.279968 107.150360,183.858841 106.800331,183.863022 
	C99.247269,183.953033 91.692635,184.036713 84.140991,183.930298 
	C83.359550,183.919281 82.595100,182.703003 81.822769,182.045990 
z"/>
<path fill="#FEFEFE" opacity="1.000000" stroke="none" 
	d="
M73.100601,193.410629 
	C83.170647,197.038406 93.587418,199.039017 104.658585,199.584991 
	C94.265167,199.896484 83.565353,199.941483 72.390755,199.923340 
	C72.289940,197.843018 72.663910,195.825836 73.100601,193.410629 
z"/>
<path fill="#A4AFBA" opacity="1.000000" stroke="none" 
	d="
M81.546089,182.007904 
	C82.595100,182.703003 83.359550,183.919281 84.140991,183.930298 
	C91.692635,184.036713 99.247269,183.953033 106.800331,183.863022 
	C107.150360,183.858841 107.493553,183.279968 108.281929,182.503006 
	C109.504105,182.107300 110.284279,182.177338 111.064453,182.247375 
	C109.670113,185.776199 106.562378,184.834641 103.181580,185.039383 
	C102.293694,185.094528 102.103615,185.111557 101.460617,185.080566 
	C97.021942,185.044830 93.036179,185.057068 88.705734,185.042664 
	C87.900246,185.019958 87.439430,185.023926 86.978607,185.027878 
	C84.805794,184.579025 82.632980,184.130173 80.304588,183.117981 
	C80.149010,182.554657 80.157150,182.084732 80.157150,182.084732 
	C80.527908,182.046417 80.898659,182.008118 81.546089,182.007904 
z"/>
<path fill="#E7ECF1" opacity="1.000000" stroke="none" 
	d="
M83.662064,180.095398 
	C87.418060,179.985535 90.888992,179.985535 94.359917,179.985535 
	C94.355125,180.641373 94.350327,181.297226 94.345535,181.953064 
	C90.781845,181.953064 87.218163,181.953064 83.172104,181.919189 
	C82.918808,181.325287 83.147903,180.765274 83.662064,180.095398 
z"/>
<path fill="#C1BFC2" opacity="1.000000" stroke="none" 
	d="
M103.556412,178.086060 
	C97.447067,178.081009 91.337715,178.075974 84.807823,178.112228 
	C84.351273,177.937180 84.315277,177.720840 84.331543,177.179306 
	C90.599533,176.894867 96.815262,176.935623 103.499245,177.188980 
	C103.951920,177.702682 103.814896,177.930832 103.556412,178.086060 
z"/>
<path fill="#F87C1A" opacity="1.000000" stroke="none" 
	d="
M72.627716,153.294891 
	C72.951591,156.685577 72.998573,160.377335 73.058594,164.529083 
	C72.831360,161.191376 72.591087,157.393661 72.627716,153.294891 
z"/>
<path fill="#E7ECF1" opacity="1.000000" stroke="none" 
	d="
M79.871170,182.045654 
	C80.157150,182.084732 80.149010,182.554657 80.129425,182.789154 
	C79.778847,182.944885 79.499161,182.779404 79.143707,182.316925 
	C79.206154,182.073273 79.395668,182.039917 79.871170,182.045654 
z"/>
<path fill="#E8E8EA" opacity="1.000000" stroke="none" 
	d="
M166.842743,165.302856 
	C160.375107,167.592209 154.036331,170.057312 147.602600,164.680084 
	C153.423645,156.069733 158.914047,147.948456 164.404449,139.827179 
	C164.955750,139.978760 165.507050,140.130356 166.058334,140.281937 
	C168.278946,148.341965 166.776932,156.683716 166.842743,165.302856 
z"/>
<path fill="#FEFEFE" opacity="1.000000" stroke="none" 
	d="
M117.487022,199.920395 
	C121.562187,199.343063 126.178368,199.202591 130.622635,198.255447 
	C142.530914,195.717606 154.365555,192.834198 166.605026,190.047089 
	C167.243469,193.035095 167.506332,196.064072 167.889282,199.470901 
	C151.322800,199.895645 134.636230,199.942551 117.487022,199.920395 
z"/>
<path fill="#070809" opacity="1.000000" stroke="none" 
	d="
M130.296661,178.682419 
	C128.984589,178.161743 128.004059,177.435852 127.475357,176.343582 
	C130.943344,175.049942 133.959534,174.122696 136.975708,173.195450 
	C138.423035,173.875107 139.870361,174.554749 141.317673,175.234406 
	C141.218048,175.770187 141.118408,176.305969 141.018768,176.841751 
	C137.555252,177.386902 134.091751,177.932068 130.296661,178.682419 
z"/>
<path fill="#0F0E0D" opacity="1.000000" stroke="none" 
	d="
M136.622864,173.160339 
	C133.959534,174.122696 130.943344,175.049942 127.536102,175.990814 
	C126.512436,173.582169 125.879814,171.159927 125.238007,168.365158 
	C127.523407,168.992416 129.818008,169.992188 132.520142,170.985962 
	C132.225418,174.524994 134.501785,173.429291 136.622864,173.160339 
z"/>
<path fill="#ACB8C4" opacity="1.000000" stroke="none" 
	d="
M50.800301,102.921524 
	C51.031483,105.310066 50.998913,107.674507 50.948029,110.475060 
	C46.227043,110.911171 41.524364,110.911171 36.301872,110.911171 
	C36.196346,108.686546 36.106750,106.797752 35.992348,104.466400 
	C36.266705,103.913528 36.565868,103.803207 36.933926,104.304878 
	C37.104481,106.489365 37.206139,108.061852 37.309780,109.665031 
	C41.742920,109.665031 45.631466,109.665031 49.991596,109.665031 
	C49.991596,107.565613 49.991596,105.786964 49.991596,104.008316 
	C49.995808,103.817757 50.000015,103.627190 50.006134,103.149185 
	C50.184216,102.873627 50.360378,102.885529 50.800301,102.921524 
z"/>
<path fill="#DDE2E8" opacity="1.000000" stroke="none" 
	d="
M195.224335,78.020096 
	C199.524063,77.888916 201.846588,80.276848 201.468445,83.670120 
	C201.253265,85.601044 198.731552,88.076187 196.704559,88.816109 
	C193.665298,89.925545 191.218613,87.837730 190.566513,84.706619 
	C189.867447,81.349945 191.515457,79.049713 195.224335,78.020096 
z"/>
<path fill="#E6ECF2" opacity="1.000000" stroke="none" 
	d="
M49.529472,104.002350 
	C49.991596,105.786964 49.991596,107.565613 49.991596,109.665031 
	C45.631466,109.665031 41.742920,109.665031 37.309780,109.665031 
	C37.206139,108.061852 37.104481,106.489365 37.030807,104.484146 
	C41.061642,104.033073 45.064491,104.014725 49.529472,104.002350 
z"/>
<path fill="#E7EDF3" opacity="1.000000" stroke="none" 
	d="
M27.553139,101.949799 
	C27.100317,100.151527 27.100317,98.381203 27.100317,96.305054 
	C31.425098,96.305054 35.302513,96.305054 39.699051,96.305054 
	C39.797421,97.930008 39.892536,99.501167 39.955055,101.504623 
	C35.950294,101.950539 31.978128,101.964149 27.553139,101.949799 
z"/>
<path fill="#E7EDF3" opacity="1.000000" stroke="none" 
	d="
M204.966583,141.511383 
	C200.953659,141.956772 196.969437,141.968750 192.530548,141.957550 
	C192.075882,140.163712 192.075882,138.393036 192.075882,136.315338 
	C196.418884,136.315338 200.297562,136.315338 204.688110,136.315338 
	C204.792480,137.933380 204.893890,139.505692 204.966583,141.511383 
z"/>
<path fill="#FDFBFB" opacity="1.000000" stroke="none" 
	d="
M93.528412,109.855743 
	C95.515747,106.875778 97.686623,103.904892 100.000793,100.737915 
	C102.149948,101.534431 104.374496,102.358887 106.529182,103.157448 
	C108.376244,100.215683 110.133926,97.416275 112.102478,94.316383 
	C113.985733,90.239922 115.559616,86.414619 117.407318,82.726479 
	C117.813606,81.915497 119.192528,81.591774 120.469612,81.031143 
	C120.878159,81.445236 120.940628,81.871841 120.930031,82.970459 
	C119.999550,86.752182 119.031342,89.837311 118.334076,92.982506 
	C118.012001,94.435310 117.630592,96.371376 118.301697,97.450516 
	C119.997116,100.176735 124.645767,100.190262 127.259003,97.082115 
	C130.573318,93.140121 133.197891,88.618210 136.119888,84.346359 
	C136.827774,84.238121 137.535645,84.129875 138.597046,84.096558 
	C140.047195,88.218658 137.870758,91.635628 136.709259,95.204514 
	C134.091095,103.249428 129.783630,109.450027 120.108452,109.275719 
	C119.810020,109.270340 119.499153,109.955666 118.740311,110.656815 
	C117.082657,110.102188 115.878792,109.209732 114.377266,108.096611 
	C112.621536,109.742897 110.783615,111.466255 108.945694,113.189606 
	C104.586334,112.422226 100.226967,111.654846 95.398651,110.677467 
	C94.624077,110.336945 94.318466,110.206413 94.012856,110.075874 
	C94.012856,110.075874 93.711952,109.864830 93.528412,109.855743 
M116.921135,104.228638 
	C116.446770,104.019165 115.972412,103.809685 115.498047,103.600212 
	C115.613892,104.699669 115.729744,105.799126 116.483856,106.945267 
	C116.679314,106.235367 116.874771,105.525475 116.921135,104.228638 
M116.660202,99.405205 
	C116.522530,99.950333 116.375801,100.493912 116.280998,101.046402 
	C116.277283,101.068054 116.770088,101.174911 117.031548,101.242065 
	C117.098175,100.617317 117.164803,99.992569 116.660202,99.405205 
z"/>
<path fill="#E3E9EE" opacity="1.000000" stroke="none" 
	d="
M108.989136,113.564751 
	C110.783615,111.466255 112.621536,109.742897 114.377266,108.096611 
	C115.878792,109.209732 117.082657,110.102188 118.652840,111.001289 
	C118.525093,115.554703 118.031029,120.101463 117.211327,124.870636 
	C115.206535,124.391129 113.527374,123.689217 111.518547,122.891121 
	C110.470108,119.843254 109.751343,116.891571 108.989136,113.564751 
z"/>
<path fill="#E6EBF1" opacity="1.000000" stroke="none" 
	d="
M168.066406,56.671478 
	C174.741196,55.498962 178.536499,57.136269 180.437851,61.662212 
	C182.177719,65.803719 180.795609,70.584236 177.116623,73.149971 
	C172.490768,76.376045 167.015579,75.353119 163.883728,70.677696 
	C160.531616,65.673447 161.916138,60.699825 168.066406,56.671478 
z"/>
<path fill="#AAB5BF" opacity="1.000000" stroke="none" 
	d="
M135.690002,84.187309 
	C133.197891,88.618210 130.573318,93.140121 127.259003,97.082115 
	C124.645767,100.190262 119.997116,100.176735 118.301697,97.450516 
	C117.630592,96.371376 118.012001,94.435310 118.334076,92.982506 
	C119.031342,89.837311 119.999550,86.752182 120.950668,83.295044 
	C125.782967,83.307823 130.521545,83.668037 135.690002,84.187309 
z"/>
<path fill="#AAB5BF" opacity="1.000000" stroke="none" 
	d="
M146.779144,79.117477 
	C147.233475,79.890793 147.367691,80.761414 147.267746,81.810806 
	C146.842072,81.064644 146.650558,80.139717 146.779144,79.117477 
z"/>
<path fill="#E6ECF2" opacity="1.000000" stroke="none" 
	d="
M182.057861,93.006012 
	C181.804016,97.232613 179.754776,99.457932 175.955658,98.746239 
	C172.771912,98.149818 170.535339,95.869583 171.456528,92.277206 
	C172.307587,88.958443 174.891174,87.079590 178.212891,88.218987 
	C179.804291,88.764870 180.787689,91.083252 182.057861,93.006012 
z"/>
<path fill="#E7EDF3" opacity="1.000000" stroke="none" 
	d="
M150.973587,50.517822 
	C146.955887,50.962395 142.967804,50.972820 138.524170,50.962925 
	C138.068619,49.170937 138.068619,47.399269 138.068619,45.319397 
	C142.417999,45.319397 146.298828,45.319397 150.694000,45.319397 
	C150.799026,46.937557 150.901108,48.510616 150.973587,50.517822 
z"/>
<path fill="#0F0E0D" opacity="1.000000" stroke="none" 
	d="
M103.472107,178.455948 
	C103.814896,177.930832 103.951920,177.702682 103.965225,177.195114 
	C105.008827,176.593643 106.054695,176.198639 106.994934,175.422852 
	C111.346306,175.480560 109.740616,170.608231 112.378204,169.074661 
	C111.891670,171.745636 111.069641,174.501007 110.158821,177.554031 
	C112.518494,178.501480 117.105835,176.872726 116.864746,182.482971 
	C115.090225,182.396378 113.519005,182.319717 111.506119,182.245209 
	C110.284279,182.177338 109.504105,182.107300 108.332390,182.098450 
	C106.187920,181.369659 102.751762,182.878510 103.472107,178.455948 
z"/>
<path fill="#A4AFBA" opacity="1.000000" stroke="none" 
	d="
M122.851883,155.676483 
	C120.577606,156.404266 118.335358,156.749161 115.713226,157.101837 
	C115.320534,156.663147 115.307724,156.216690 115.480736,155.225891 
	C115.715103,154.118683 115.763649,153.555832 115.812195,152.992981 
	C115.971939,150.973618 116.131676,148.954254 116.422424,146.283722 
	C116.734505,145.100784 116.915573,144.569031 117.096642,144.037262 
	C118.388084,145.141663 119.679527,146.246063 121.047134,147.955811 
	C121.391151,149.049500 121.659019,149.537811 121.926888,150.026123 
	C122.245903,151.781952 122.564911,153.537781 122.851883,155.676483 
z"/>
<path fill="#0F0E0D" opacity="1.000000" stroke="none" 
	d="
M105.575943,171.897369 
	C105.153847,168.639450 105.105743,165.273499 105.113388,161.451294 
	C108.526756,164.369110 107.165657,168.084473 105.575943,171.897369 
z"/>
<path fill="#0F0E0D" opacity="1.000000" stroke="none" 
	d="
M113.550751,164.051483 
	C113.672272,164.809998 113.483223,165.624405 113.126099,166.713379 
	C113.052086,166.027740 113.146133,165.067551 113.550751,164.051483 
z"/>
<path fill="#0F0E0D" opacity="1.000000" stroke="none" 
	d="
M125.272110,165.798492 
	C124.732079,165.202789 124.435303,164.414230 124.169373,163.309433 
	C124.638596,163.864014 125.076981,164.734818 125.272110,165.798492 
z"/>
<path fill="#0F0E0D" opacity="1.000000" stroke="none" 
	d="
M114.541367,159.053589 
	C114.700363,159.823425 114.546494,160.651535 114.205841,161.743057 
	C114.088875,161.041595 114.158691,160.076736 114.541367,159.053589 
z"/>
<path fill="#0F0E0D" opacity="1.000000" stroke="none" 
	d="
M116.786179,144.053284 
	C116.915573,144.569031 116.734505,145.100784 116.376518,145.851578 
	C116.291641,145.403503 116.383675,144.736404 116.786179,144.053284 
z"/>
<path fill="#0F0E0D" opacity="1.000000" stroke="none" 
	d="
M124.163788,159.873779 
	C123.693062,159.531509 123.453140,159.039902 123.233566,158.269653 
	C123.634148,158.568817 124.014374,159.146622 124.163788,159.873779 
z"/>
<path fill="#0F0E0D" opacity="1.000000" stroke="none" 
	d="
M115.520798,153.044891 
	C115.763649,153.555832 115.715103,154.118683 115.469055,154.889343 
	C115.257500,154.430359 115.243446,153.763580 115.520798,153.044891 
z"/>
<path fill="#0F0E0D" opacity="1.000000" stroke="none" 
	d="
M122.159668,149.872269 
	C121.659019,149.537811 121.391151,149.049500 121.153442,148.277252 
	C121.586548,148.568329 121.989502,149.143372 122.159668,149.872269 
z"/>
<path fill="#0F0E0D" opacity="1.000000" stroke="none" 
	d="
M105.900970,174.751282 
	C105.679527,174.834335 105.359459,174.716660 105.072845,174.302002 
	C105.392540,174.117676 105.624565,174.299515 105.900970,174.751282 
z"/>
<path fill="#F7F8F8" opacity="1.000000" stroke="none" 
	d="
M101.027092,76.123199 
	C101.126038,77.607048 101.515572,79.146515 101.245117,80.559662 
	C100.953827,82.081665 100.422340,84.161560 99.314911,84.780975 
	C97.683128,85.693672 95.123940,86.647018 94.149979,82.696472 
	C94.239105,80.702896 94.346901,79.433044 94.424561,78.518181 
	C96.763542,77.669746 98.895317,76.896477 101.027092,76.123199 
z"/>
<path fill="#0F0E0D" opacity="1.000000" stroke="none" 
	d="
M110.527802,78.345123 
	C113.785088,77.887733 116.746429,77.357254 115.825294,82.365364 
	C111.844673,81.519722 107.511032,83.132111 104.131828,80.670029 
	C104.222206,80.143471 104.312584,79.616913 104.402962,79.090355 
	C106.312500,78.860565 108.222038,78.630783 110.527802,78.345123 
z"/>
<path fill="#0F0E0D" opacity="1.000000" stroke="none" 
	d="
M101.177094,75.686737 
	C98.895317,76.896477 96.763542,77.669746 94.424561,78.518181 
	C94.346901,79.433044 94.239105,80.702896 94.010437,82.365311 
	C93.300339,80.333656 91.609070,76.265572 92.323792,75.786438 
	C94.683197,74.204720 97.912178,73.920135 100.807335,73.137581 
	C100.980583,73.841805 101.153839,74.546036 101.177094,75.686737 
z"/>
<path fill="#FDFBFB" opacity="1.000000" stroke="none" 
	d="
M115.451324,85.517212 
	C115.415565,85.460632 115.487076,85.573799 115.451324,85.517212 
z"/>
<path fill="#F28133" opacity="1.000000" stroke="none" 
	d="
M94.139389,110.286537 
	C94.318466,110.206413 94.624077,110.336945 95.021912,110.715828 
	C94.777061,110.907181 94.494324,110.751526 94.139389,110.286537 
z"/>
<path fill="#C9D2DA" opacity="1.000000" stroke="none" 
	d="
M101.913528,185.128571 
	C102.103615,185.111557 102.293694,185.094528 102.770493,185.076828 
	C103.057198,187.181808 103.057198,189.287476 103.057198,192.029007 
	C98.218689,192.029007 93.975792,192.198105 89.752464,191.982910 
	C85.253685,191.753693 87.680244,188.060226 86.991837,185.471100 
	C87.439430,185.023926 87.900246,185.019958 88.688019,185.473267 
	C89.118698,187.486206 89.222427,189.041870 89.331047,190.670914 
	C93.684662,190.670914 97.520775,190.670914 101.913528,190.670914 
	C101.913528,188.619598 101.913528,186.874084 101.913528,185.128571 
z"/>
<path fill="#E7EDF3" opacity="1.000000" stroke="none" 
	d="
M101.460617,185.080566 
	C101.913528,186.874084 101.913528,188.619598 101.913528,190.670914 
	C97.520775,190.670914 93.684662,190.670914 89.331047,190.670914 
	C89.222427,189.041870 89.118698,187.486206 89.032692,185.499939 
	C93.036179,185.057068 97.021942,185.044830 101.460617,185.080566 
z"/>
<path fill="#F7F8F8" opacity="1.000000" stroke="none" 
	d="
M115.845596,106.898582 
	C115.729744,105.799126 115.613892,104.699669 115.498047,103.600212 
	C115.972412,103.809685 116.446770,104.019165 116.845337,104.786774 
	C116.461555,105.862801 116.153580,106.380692 115.845596,106.898582 
z"/>
<path fill="#F7F8F8" opacity="1.000000" stroke="none" 
	d="
M116.945816,99.386513 
	C117.164803,99.992569 117.098175,100.617317 117.031548,101.242065 
	C116.770088,101.174911 116.277283,101.068054 116.280998,101.046402 
	C116.375801,100.493912 116.522530,99.950333 116.945816,99.386513 
z"/>
<path fill="#E3E9EE" opacity="1.000000" stroke="none" 
	d="
M116.164726,106.921921 
	C116.153580,106.380692 116.461555,105.862801 116.919876,105.080246 
	C116.874771,105.525475 116.679314,106.235367 116.164726,106.921921 
z"/>
</svg>