<?xml version="1.0" standalone="no"?>
<!DOCTYPE svg PUBLIC "-//W3C//DTD SVG 20010904//EN"
 "http://www.w3.org/TR/2001/REC-SVG-20010904/DTD/svg10.dtd">
<svg version="1.0" xmlns="http://www.w3.org/2000/svg"
 width="225.000000pt" height="225.000000pt" viewBox="0 0 225.000000 225.000000"
 preserveAspectRatio="xMidYMid meet">
<metadata>
Created by potrace 1.16, written by Peter Selinger 2001-2019
</metadata>
<g transform="translate(0.000000,225.000000) scale(0.100000,-0.100000)"
fill="#000000" stroke="none">
<path d="M852 2238 c31 -11 50 -61 43 -113 -4 -35 -35 -118 -42 -112 -2 2 1
17 8 33 6 16 12 58 14 94 l4 65 -18 -51 c-9 -27 -31 -73 -48 -100 -17 -28 -34
-61 -38 -74 -7 -23 -8 -23 -21 -5 -8 10 -11 29 -8 42 4 13 2 23 -4 23 -6 0
-13 -8 -15 -17 -3 -11 -5 -7 -6 10 0 15 4 27 9 27 6 0 10 12 10 26 0 14 -4 23
-10 19 -17 -10 -11 24 8 44 66 70 84 93 67 83 -55 -29 -135 -149 -135 -201 1
-34 32 -103 72 -155 17 -22 26 -36 18 -29 -10 9 -16 8 -28 -3 -13 -13 -12 -17
4 -29 22 -17 60 -19 67 -5 3 6 4 5 3 -2 -2 -8 -20 -13 -48 -13 -26 0 -44 -3
-41 -7 4 -7 -11 -10 -62 -12 -11 -1 -35 -14 -54 -31 -18 -16 -38 -29 -43 -27
-5 1 -12 -6 -15 -17 -3 -13 -17 -21 -42 -25 -21 -3 -46 -15 -56 -26 -10 -11
-24 -20 -32 -20 -7 0 -13 -9 -13 -20 0 -11 -5 -20 -10 -20 -6 0 -32 -23 -58
-50 l-48 -50 -34 35 c-19 19 -37 35 -42 35 -4 0 10 -18 32 -40 22 -22 44 -40
49 -40 5 0 21 15 35 33 19 23 26 27 26 15 0 -10 3 -18 8 -18 18 1 68 71 64 91
-1 4 8 4 20 1 20 -5 20 -6 3 -19 -11 -7 -13 -13 -6 -13 8 0 5 -10 -8 -29 -24
-33 -27 -48 -8 -34 6 6 20 13 31 17 15 5 17 3 12 -19 -5 -18 -2 -27 9 -31 21
-8 19 -20 -11 -60 -26 -33 -22 -47 5 -21 11 10 13 10 7 0 -8 -14 6 -16 40 -7
19 5 23 16 29 72 8 72 17 69 35 -12 6 -26 20 -60 31 -76 29 -38 36 -112 15
-145 -19 -29 -60 -42 -80 -25 -12 9 -20 8 -40 -5 -13 -9 -35 -15 -47 -13 -29
4 -48 -24 -30 -46 7 -8 19 -12 27 -9 8 3 14 -1 14 -8 1 -9 6 -7 15 5 8 11 16
16 17 10 0 -5 2 -13 3 -19 2 -5 3 -22 4 -37 l1 -27 30 17 c27 15 32 15 40 2 5
-8 10 -36 10 -62 0 -55 -20 -200 -29 -210 -3 -4 -23 -3 -43 1 -21 5 -36 5 -33
1 3 -5 28 -11 55 -15 60 -8 71 -21 39 -46 -31 -24 -44 -24 -107 6 -61 28 -70
20 -13 -12 46 -27 83 -74 72 -92 -10 -16 -62 -43 -69 -36 -3 3 0 5 8 5 10 0
10 3 0 15 -7 8 -19 15 -27 15 -8 0 -11 5 -8 10 3 6 -4 10 -16 10 -12 0 -20 3
-17 6 15 14 -113 107 -140 102 -9 -1 -21 0 -27 3 -5 3 -23 3 -40 -1 l-30 -6
37 -7 c39 -8 51 -27 45 -72 -2 -21 1 -21 64 -8 33 6 42 -7 50 -77 4 -30 12
-82 18 -115 6 -33 14 -75 17 -92 3 -20 11 -33 19 -33 19 0 19 5 -1 35 -15 23
-14 23 8 17 21 -5 22 -4 9 11 -12 16 -11 16 28 3 39 -14 60 -8 46 13 -3 5 -2
12 2 14 5 3 18 -39 31 -92 25 -107 74 -202 107 -208 11 -2 31 -6 45 -7 14 -2
60 -11 103 -20 43 -9 83 -14 88 -10 5 3 42 -2 82 -11 98 -23 404 -23 537 0
100 17 206 50 228 72 7 7 17 13 22 13 14 0 90 53 90 63 0 6 10 2 21 -9 l22
-19 -5 33 c-4 25 0 37 15 47 11 8 16 18 12 25 -5 9 -1 10 15 5 21 -7 22 -5 16
20 -4 15 -22 49 -41 77 -47 67 -49 131 -6 180 15 18 48 69 72 114 26 48 74
113 118 160 82 89 111 137 111 187 0 49 -35 82 -113 106 -37 11 -81 28 -99 37
-26 14 -30 14 -21 2 7 -8 32 -21 55 -28 58 -18 112 -45 127 -64 17 -20 7 -20
-23 -1 -13 8 -51 26 -86 40 -35 14 -71 32 -81 41 -16 14 -15 18 24 53 23 20
65 55 92 76 28 22 60 49 71 60 28 26 84 118 83 136 0 8 -4 4 -10 -9 -5 -13
-13 -20 -19 -17 -6 4 -13 -7 -16 -23 -26 -131 -436 -365 -655 -374 -33 -2 -54
4 -78 21 -44 31 -89 95 -97 137 -7 37 2 48 166 224 63 67 180 232 180 253 0
15 -39 -34 -40 -49 0 -6 -8 -18 -17 -25 -15 -12 -16 -12 -10 4 4 11 3 16 -3
12 -6 -4 -9 -14 -8 -22 2 -10 -5 -17 -17 -19 -11 -2 -32 -6 -46 -9 -17 -5 -31
-1 -42 9 -8 9 -21 16 -27 16 -26 0 5 20 69 44 37 15 88 43 111 64 38 32 43 34
38 14 -4 -12 -2 -20 3 -16 5 3 9 14 9 24 0 46 63 43 190 -9 41 -17 78 -31 83
-31 4 0 7 14 7 31 0 40 -56 95 -105 105 -46 8 -53 23 -24 45 13 10 19 19 12
19 -8 0 -8 7 0 29 15 42 -25 118 -79 148 -21 13 -43 23 -49 22 -5 0 7 -9 27
-19 40 -22 65 -49 32 -36 -40 15 -120 26 -149 20 -32 -7 -105 -56 -144 -98
-14 -14 -30 -26 -37 -26 -6 0 -15 -7 -18 -16 -5 -13 -3 -14 6 -6 14 11 73 3
143 -20 29 -10 41 -19 43 -36 l4 -24 -31 23 -30 22 -55 -23 c-31 -12 -72 -38
-91 -58 -19 -20 -38 -33 -42 -29 -11 11 26 75 60 103 26 22 27 24 7 24 -11 0
-34 15 -50 34 -22 24 -36 32 -52 29 -22 -4 -48 -42 -48 -70 0 -7 -5 -13 -11
-13 -5 0 -8 3 -6 8 3 4 8 30 12 57 3 28 10 54 15 59 14 14 59 -3 87 -34 l26
-29 26 19 c14 10 49 40 76 66 28 25 64 52 80 60 17 7 23 13 14 14 -20 0 -83
-46 -128 -94 -39 -41 -65 -45 -96 -16 -11 11 -35 23 -52 26 -28 6 -34 2 -57
-34 -18 -28 -34 -42 -53 -45 -22 -3 -19 -4 12 -6 34 -1 37 -3 25 -15 -18 -17
-140 -56 -174 -56 -18 0 -24 -4 -20 -15 4 -8 1 -15 -5 -15 -6 0 -11 5 -11 10
0 6 -7 10 -16 10 -13 0 -12 -5 5 -27 31 -39 15 -42 -21 -4 -17 18 -45 39 -61
46 -25 10 -33 10 -49 -4 -11 -9 -24 -27 -29 -40 -5 -13 -12 -21 -15 -18 -9 9
15 75 34 94 13 12 13 15 2 11 -8 -2 -24 -24 -36 -48 -19 -38 -22 -41 -29 -22
-12 40 -8 76 19 154 29 85 31 110 15 157 -11 31 -36 52 -61 50 -7 0 -1 -5 14
-11z m205 -604 c3 -8 -7 -33 -24 -57 -33 -46 -73 -136 -73 -163 0 -12 6 -15
22 -11 27 8 87 -20 111 -50 10 -13 24 -29 31 -36 25 -26 68 -87 61 -87 -4 0
-14 8 -22 18 -13 15 -13 15 -7 -8 4 -14 8 -35 8 -48 1 -12 15 -34 31 -49 17
-14 22 -23 13 -20 -9 3 -19 0 -21 -7 -9 -24 -99 -41 -212 -41 -95 0 -116 3
-152 22 -116 62 -153 209 -88 351 29 63 60 100 120 142 76 53 189 78 202 44z
m738 -618 c8 -20 15 -48 15 -64 0 -36 -21 -57 -38 -40 -9 9 -12 8 -12 -5 0
-35 -190 -59 -302 -38 -83 16 -168 50 -168 67 0 8 -9 23 -21 35 -11 11 -19 30
-17 42 3 21 8 22 110 22 96 0 109 -2 138 -23 23 -17 41 -23 66 -20 23 3 35 -1
40 -12 5 -11 8 -9 13 10 4 14 13 25 21 26 8 0 39 4 68 9 51 7 53 9 47 33 -5
22 -5 23 10 9 9 -9 22 -32 30 -51z"/>
<path d="M1928 1635 c-10 -51 49 -205 79 -205 9 0 13 15 13 51 0 31 4 48 10
44 18 -11 10 39 -13 80 -16 28 -31 41 -54 46 -27 5 -32 3 -35 -16z"/>
<path d="M154 1535 c-13 -20 -16 -40 -11 -90 7 -78 34 -132 83 -172 26 -21 37
-37 37 -56 0 -36 17 -35 18 1 1 24 2 23 8 -8 8 -42 18 -60 33 -60 7 0 7 4 0
13 -6 7 -7 18 -2 26 7 12 11 12 23 -1 12 -11 13 -18 4 -27 -7 -7 -7 -11 0 -11
10 0 33 22 113 113 23 26 48 47 55 47 8 0 18 -12 23 -27 7 -18 11 -22 11 -10
1 9 6 17 11 17 24 0 7 29 -26 45 -29 13 -42 15 -60 6 -13 -6 -24 -15 -24 -21
0 -6 -4 -9 -10 -5 -5 3 -17 1 -27 -4 -10 -6 -39 -13 -65 -16 -27 -3 -48 -11
-48 -16 0 -6 8 -8 18 -5 50 15 72 17 72 8 0 -11 -52 -32 -78 -32 -53 0 -143
77 -142 121 1 14 4 11 40 -40 20 -29 58 -53 71 -45 7 4 4 13 -7 25 -15 17 -15
21 0 53 9 19 16 46 16 61 0 37 -54 92 -99 100 -34 6 -35 8 -16 21 10 8 14 14
7 14 -6 0 -19 -11 -28 -25z"/>
<path d="M1662 1526 c-36 -41 -72 -133 -72 -182 0 -26 8 -43 29 -65 55 -54 94
-32 132 77 8 22 20 45 26 52 20 21 5 103 -24 130 -33 31 -56 28 -91 -12z"/>
<path d="M40 688 c0 -7 -3 -23 -6 -35 -4 -15 1 -27 15 -39 12 -10 21 -24 21
-32 0 -7 16 -20 36 -28 30 -13 38 -13 45 -3 10 17 29 -29 30 -74 1 -18 5 -43
10 -57 7 -21 8 -20 4 9 -3 19 -8 71 -11 117 l-7 83 34 15 c33 15 34 15 4 9
l-30 -6 25 21 c20 17 22 21 8 22 -22 0 -88 -31 -88 -42 0 -4 -6 -5 -14 -2 -8
3 -17 1 -21 -5 -3 -6 -2 -11 3 -11 5 0 7 -13 4 -30 -6 -40 -18 -30 -27 22 -4
24 -10 35 -12 26 -3 -10 -8 -18 -13 -18 -5 0 -4 15 1 32 11 40 11 38 -1 38 -5
0 -10 -6 -10 -12z"/>
</g>
</svg>
